<?xml version="1.0" standalone="no"?>
<!DOCTYPE svg PUBLIC "-//W3C//DTD SVG 20010904//EN"
 "http://www.w3.org/TR/2001/REC-SVG-20010904/DTD/svg10.dtd">
<svg version="1.0" xmlns="http://www.w3.org/2000/svg"
 width="450.000000pt" height="360.000000pt" viewBox="0 0 450.000000 360.000000"
 preserveAspectRatio="xMidYMid meet">

<g transform="translate(0.000000,360.000000) scale(0.100000,-0.100000)"
fill="#000000" stroke="none">
<path d="M0 1800 l0 -1800 2250 0 2250 0 0 1800 0 1800 -2250 0 -2250 0 0
-1800z m1909 160 c41 -118 76 -217 78 -219 7 -9 15 11 91 220 l78 214 102 3
102 3 0 -381 0 -380 -85 0 -85 0 0 297 c0 163 -4 293 -8 288 -5 -6 -47 -115
-93 -242 l-84 -233 -60 0 -60 0 -89 258 c-96 277 -118 327 -168 366 l-33 26
120 -2 120 -3 74 -215z m785 186 c68 -33 96 -75 103 -155 7 -76 -19 -138 -77
-180 -23 -17 -51 -33 -62 -37 -17 -5 -15 -9 20 -35 30 -22 54 -56 92 -131 29
-56 71 -121 93 -145 l40 -43 -105 0 c-130 0 -130 0 -208 164 -54 115 -99 175
-133 177 -7 0 12 9 40 20 110 42 153 130 122 244 -17 60 -44 92 -107 126 l-57
30 92 -4 c75 -4 103 -10 147 -31z"/>
</g>
</svg>
